ply
format ascii 1.0
comment https://github.com/mikedh/trimesh
element vertex 10
property float x
property float y
property float z
property uchar red
property uchar green
property uchar blue
property uchar alpha
end_header
0.00000000 0.00000000 0.00000000 255 0 0 255
1.00000000 0.50000000 0.25000000 0 255 0 255
2.00000000 1.00000000 0.50000000 0 0 255 255
3.00000000 1.50000000 0.75000000 255 255 0 255
4.00000000 2.00000000 1.00000000 255 0 255 255
5.00000000 2.50000000 1.25000000 0 255 255 255
6.00000000 3.00000000 1.50000000 128 128 128 255
7.00000000 3.50000000 1.75000000 255 128 0 255
8.00000000 4.00000000 2.00000000 64 200 16 255
9.00000000 4.50000000 2.25000000 10 20 30 255
